<svg id="圖層_1" data-name="圖層 1" xmlns="http://www.w3.org/2000/svg" viewBox="0 0 86.97 84.74"><defs><style>.cls-1{fill:#323333;}</style></defs><g id="CP9M5T.tif"><path class="cls-1" d="M52.21,5.8c7.63,0,15.25-.17,22.87,0a21.19,21.19,0,0,1,20.4,20.7q.26,21.49,0,43A21.26,21.26,0,0,1,74.41,90.38q-22.12.18-44.24,0A21.35,21.35,0,0,1,8.75,69.11q-.24-21,0-42c.14-12,9.12-21,21.1-21.29,7.45-.2,14.91,0,22.36,0ZM48.14,44.6c-4.76,0-9.14,0-13.53,0-3.33,0-4.29.91-4.3,4s.94,4,4.21,4c4.45,0,8.91,0,13.5,0,0,1.06.12,1.87.12,2.68,0,3.89,0,7.79,0,11.68,0,2.27,1.15,3.34,3.3,3.51,3.41.26,4.72-.94,4.73-4.37,0-4.44,0-8.88,0-13.5,4.72,0,9.1,0,13.48,0,3.28,0,4.34-1,4.38-3.95s-1.12-4.05-4.29-4.06c-4.45,0-8.9,0-13.57,0,0-4.74,0-9.2,0-13.65,0-3.09-1-4.16-3.89-4.19-3.12,0-4.12.95-4.13,4.15C48.13,35.37,48.14,39.83,48.14,44.6Z" transform="translate(-8.63 -5.72)"/></g></svg>